<svg xmlns="http://www.w3.org/2000/svg" width="1200" height="630" viewBox="0 0 1200 630"><rect width="1200" height="630" fill="#faf9f5"/><circle cx="1095" cy="95" r="185" fill="#edf3e6"/><rect x="48" y="219" width="1104" height="369" rx="24" fill="#edf3e6"/><path d="M48 449Q310 426 590 449T1152 449V568Q1152 588 1132 588H68Q48 588 48 568Z" fill="#e6dbc6"/><path d="M48 449Q310 426 590 449T1152 449" fill="none" stroke="#86a277" stroke-width="5"/><g font-family="DejaVu Sans" fill="#315d48"><text x="59" y="58" font-size="15" letter-spacing="2">KNOW YOUR NEXT STEP</text><text x="58" y="119" font-size="43" font-weight="bold">Septic Tank Problems</text><text x="60" y="163" font-size="23" fill="#65756c">Smells, slow drains, alarms and when to arrange help</text><text x="998" y="611" font-size="19" font-weight="bold">SepticHow</text></g><g stroke="#315d48" stroke-width="4" stroke-linejoin="round"><path d="M70 330L190 235L310 330" fill="#c88a60"/><rect x="90" y="329" width="200" height="116" rx="4" fill="#fffdf5"/><rect x="122" y="352" width="47" height="45" rx="3" fill="#b7d8d4"/><path d="M205 445V373H257V445" fill="#aac0a0"/><path d="M247 454V497H370" fill="none" stroke="#60867a" stroke-width="12"/><rect x="370" y="463" width="235" height="107" rx="16" fill="#fffdf5"/><path d="M374 508H601V554H374Z" fill="#b7d8d4" stroke="none"/><path d="M381 558H593" stroke="#b6a281" stroke-width="12"/><path d="M475 466V553" stroke="#60867a"/><rect x="401" y="447" width="43" height="16" rx="3" fill="#60867a"/><rect x="533" y="447" width="43" height="16" rx="3" fill="#60867a"/><path d="M605 492H675V463H955M675 492H955M675 492V527H955" fill="none" stroke="#60867a" stroke-width="9" stroke-linecap="round"/></g><g stroke="#81a891" stroke-width="3" stroke-dasharray="5 9"><path d="M744 542V577M825 542V577M902 542V577"/></g><rect x="740" y="260" width="320" height="286" rx="18" fill="#fffdf5" stroke="#c5ae81" stroke-width="3"/><circle cx="802" cy="315" r="28" fill="#f4dfab"/><path d="M802 299V320M802 329V332" stroke="#966927" stroke-width="6" stroke-linecap="round"/><text x="846" y="322" font-family="DejaVu Sans" fill="#315d48" font-size="22">CHECK SYMPTOMS</text><g font-family="DejaVu Sans" fill="#315d48" font-size="23"><text x="777" y="387">Smells or slow drains?</text><text x="777" y="430">Alarm sounding?</text><text x="777" y="473">Note what changed.</text></g><rect x="776" y="491" width="246" height="37" rx="7" fill="#e9f1e3"/><text x="793" y="517" font-family="DejaVu Sans" fill="#315d48" font-size="18">Find your next step</text></svg>